# xmcd
#
# Track frame offsets:
#	150
#	18532
#	34685
#	49881
#	65953
#	88509
#	107429
#	130998
#	148556
#	170993
#	194535
#	215325
#	231855
#	247116
#	267883
#	275609
#	289653
#	302884
#	322260
#	338720
#
# Disc length: 4707
#
# Revision: 2
# Processed by: cddbd v1.5.1PL0 Copyright (c) Steve Scherf et al.
# Submitted via: OrangeCD 4.3
# Normalized: r1:DSETVAR1
#
DISCID=40126114
DTITLE=Various Artist - Both Sides Now [CD1]
DYEAR=2002
DGENRE=alt.Country
TTITLE0=Bob Dylan - High Water
TTITLE1=Raul Malo and Shelby Lynne - It Takes Two To Tango
TTITLE2=Lambchop - I Can Hardly Spell My Name
TTITLE3=The Flaming Lips - Do You Realise
TTITLE4=Jim O'Rouke - All Downhill From Here
TTITLE5=Jeff Finlin - I Am The King
TTITLE6=Warren Zevon - You're A Whole Different Person When You're Scared
TTITLE7=Jay Farrar - Barstow
TTITLE8=Radar Brothers - Rock Of The Lake
TTITLE9=Dan Bern - New American Language
TTITLE10=Jason Ringenberg - Bible and A Gun
TTITLE11=The Be Good Tanyas - Don't You Fall
TTITLE12=Silver Jews - Horseleg Swastikas
TTITLE13=Caitlin Cary - Shallow Heart, Shallow Water
TTITLE14=Hayden - I Should Have Been Watching You
TTITLE15=The Vessels - Don't Waste Your Time
TTITLE16=Chris Mills - Silver Line
TTITLE17=Br5-49 - Hickory Wind
TTITLE18=Stewboss - I Hope I Miss You
TTITLE19=Rodney Crowell - Ballad Of A Teenage Queen
EXTD=
EXTT0=
EXTT1=
EXTT2=
EXTT3=
EXTT4=
EXTT5=
EXTT6=
EXTT7=
EXTT8=
EXTT9=
EXTT10=
EXTT11=
EXTT12=
EXTT13=
EXTT14=
EXTT15=
EXTT16=
EXTT17=
EXTT18=
EXTT19=
PLAYORDER=
